<svg xmlns="http://www.w3.org/2000/svg" xmlns:xlink="http://www.w3.org/1999/xlink" viewBox="0 0 1280.32 1163.41"><defs><style>.cls-1{isolation:isolate;}.cls-2{fill:url(#linear-gradient);}.cls-3{fill:url(#linear-gradient-2);}.cls-4{mix-blend-mode:screen;fill:url(#linear-gradient-3);}.cls-5{fill:url(#linear-gradient-4);}.cls-6{opacity:0.5;mix-blend-mode:multiply;fill:url(#radial-gradient);}</style><linearGradient id="linear-gradient" x1="645.54" y1="101.88" x2="645.54" y2="1091.57" gradientUnits="userSpaceOnUse"><stop offset="0" stop-color="#52c42b"/><stop offset="1" stop-color="#1f9120"/></linearGradient><linearGradient id="linear-gradient-2" x1="870.25" y1="915.98" x2="432.31" y2="116.85" xlink:href="#linear-gradient"/><linearGradient id="linear-gradient-3" x1="702.47" y1="636.39" x2="485.76" y2="139.75" gradientUnits="userSpaceOnUse"><stop offset="0" stop-color="#c4c4c4"/><stop offset="1"/></linearGradient><linearGradient id="linear-gradient-4" x1="1111.31" y1="611.32" x2="769.48" y2="269.49" xlink:href="#linear-gradient"/><radialGradient id="radial-gradient" cx="830.7" cy="8424.86" r="349.15" gradientTransform="translate(-759.21 -1090.83) scale(1.7 0.25)" gradientUnits="userSpaceOnUse"><stop offset="0" stop-color="#42b428"/><stop offset="0.01" stop-color="#47b62e"/><stop offset="0.16" stop-color="#77c965"/><stop offset="0.31" stop-color="#a1da94"/><stop offset="0.45" stop-color="#c3e7bb"/><stop offset="0.6" stop-color="#ddf2d8"/><stop offset="0.74" stop-color="#f0f9ee"/><stop offset="0.87" stop-color="#fbfdfb"/><stop offset="1" stop-color="#fff"/></radialGradient></defs><title>sl_112520_38300_24 [Converted]</title><g class="cls-1"><g id="Layer_1" data-name="Layer 1"><path class="cls-2" d="M944.65,506c0,165.18-133.92,299.1-299.11,299.1S346.44,671.14,346.44,506s133.92-299.11,299.1-299.11S944.65,340.77,944.65,506Zm134.71,0c0-239.59-194.23-433.82-433.82-433.82S211.73,266.37,211.73,506,406,939.77,645.54,939.77,1079.36,745.54,1079.36,506Z"/><path class="cls-3" d="M645.54,928.28c-232.87,0-422.32-189.45-422.32-422.32S412.67,83.63,645.54,83.63,1067.87,273.08,1067.87,506,878.42,928.28,645.54,928.28Zm0-732.91C474.29,195.37,335,334.7,335,506S474.29,816.54,645.54,816.54,956.13,677.21,956.13,506,816.8,195.37,645.54,195.37Z"/><path class="cls-4" d="M645.54,83.63C412.67,83.63,223.22,273.08,223.22,506a419.66,419.66,0,0,0,39.83,178.78,774.25,774.25,0,0,1,86.36-85.17A309.53,309.53,0,0,1,335,506c0-171.26,139.33-310.59,310.58-310.59,123.25,0,229.94,72.16,280.09,176.44q56.18-5.93,117.66-7.71C984.87,200.81,828.66,83.63,645.54,83.63Z"/><path class="cls-5" d="M410.29,482.53c45.25,34.19,62.53,39,100.39,90.64,61.88,84.38,52.77,119.31,71.13,135.37s102.49,29.07,159.85-44.36,146.85-276.1,261.57-397.71S1171.5,109.68,1205.92,91.32s-74.64-14.45-289.11,156C767.66,365.9,662.12,529.57,662.12,529.57s-29.83-89.48-96.37-149.14S335.15,425.74,410.29,482.53Z"/><ellipse class="cls-6" cx="651.56" cy="1015.38" rx="592.95" ry="87.29"/></g></g></svg>